<svg width="69" height="69" viewBox="0 0 69 69" fill="none" xmlns="http://www.w3.org/2000/svg">
<path d="M44.12 37.0411L43.42 37.3111C43.0157 37.5046 42.5732 37.605 42.125 37.605C41.6768 37.605 41.2343 37.5046 40.83 37.3111C40.1292 36.8082 39.557 36.1469 39.16 35.3811C38.5465 34.2796 37.6792 33.3403 36.63 32.6411C35.6319 32.1385 34.5133 31.9246 33.4002 32.0236C32.2871 32.1225 31.2238 32.5303 30.33 33.2011L30 33.4411L30.81 37.3411L31.5 37.0811C31.9013 36.8835 32.3427 36.7807 32.79 36.7807C33.2373 36.7807 33.6787 36.8835 34.08 37.0811C34.7782 37.5732 35.3532 38.22 35.76 38.9711C36.3814 40.0737 37.2596 41.0102 38.32 41.7011C39.0977 42.1503 39.982 42.3817 40.88 42.3711C42.2235 42.3753 43.5347 41.9592 44.63 41.1811L44.96 40.9411L44.12 37.0411Z" fill="#FFFFFF"/>
<path d="M48.2783 25.651C45.3857 22.7763 41.4003 21 37 21C28.1634 21 21 28.1634 21 37C21 45.8199 28.1364 52.973 36.95 52.9999V46.9999C31.4502 46.973 27 42.5062 27 37C27 31.4772 31.4772 27 37 27C39.7434 27 42.2288 28.1048 44.0356 29.8937L48.2783 25.651Z" fill="#FFFFFF"/>
<path fill-rule="evenodd" clip-rule="evenodd" d="M37 57C48.0457 57 57 48.0457 57 37C57 25.9543 48.0457 17 37 17C25.9543 17 17 25.9543 17 37C17 48.0457 25.9543 57 37 57ZM37 61C50.2548 61 61 50.2548 61 37C61 23.7452 50.2548 13 37 13C23.7452 13 13 23.7452 13 37C13 50.2548 23.7452 61 37 61Z" fill="#FFFFFF"/>
<path fill-rule="evenodd" clip-rule="evenodd" d="M11 5L11 6L6 6L6 11L5 11L5 5L11 5Z" fill="#FFFFFF"/>
<path fill-rule="evenodd" clip-rule="evenodd" d="M0 6L1.31134e-07 5L5 5L5 6.55671e-07L6 7.86805e-07L6 6L0 6Z" fill="#FFFFFF"/>
<path fill-rule="evenodd" clip-rule="evenodd" d="M5 63H6V68H11V69H5V63Z" fill="#FFFFFF"/>
<path fill-rule="evenodd" clip-rule="evenodd" d="M63 69L63 68L68 68L68 63L69 63L69 69L63 69Z" fill="#FFFFFF"/>
<path fill-rule="evenodd" clip-rule="evenodd" d="M69 11L68 11L68 6L63 6L63 5L69 5L69 11Z" fill="#FFFFFF"/>
<g clip-path="url(#clip0_108_17)">
<rect x="36.95" y="35.5" width="0.1" height="3" fill="#FFFFFF"/>
<rect x="38.5" y="36.95" width="0.1" height="3" transform="rotate(90 38.5 36.95)" fill="#FFFFFF"/>
</g>
<defs>
<clipPath id="clip0_108_17">
<rect width="3" height="3" fill="white" transform="translate(35.5 35.5)"/>
</clipPath>
</defs>
</svg>
