<?xml version="1.0" standalone="no"?>
<!DOCTYPE svg PUBLIC "-//W3C//DTD SVG 20010904//EN"
 "http://www.w3.org/TR/2001/REC-SVG-20010904/DTD/svg10.dtd">
<svg version="1.0" xmlns="http://www.w3.org/2000/svg"
 width="200.000000pt" height="200.000000pt" viewBox="0 0 200.000000 200.000000"
 preserveAspectRatio="xMidYMid meet">
<metadata>
Created by potrace 1.14, written by Peter Selinger 2001-2017
</metadata>
<g transform="translate(0.000000,200.000000) scale(0.100000,-0.100000)"
fill="#000000" stroke="none">
<path d="M907 1995 c-1 -2 -22 -5 -47 -8 -199 -26 -417 -134 -557 -278 -147
-149 -239 -320 -283 -524 -12 -52 -15 -297 -5 -350 64 -339 289 -622 602 -755
212 -90 473 -101 688 -29 167 56 288 131 407 252 178 181 279 421 281 672 2
136 -4 190 -33 291 -85 309 -324 564 -622 668 -91 32 -117 39 -201 52 -37 5
-225 13 -230 9z m305 -229 c48 -14 115 -39 149 -56 68 -33 185 -117 194 -139
6 -16 -168 -197 -197 -204 -9 -3 -25 3 -35 12 -34 31 -118 78 -172 96 -63 21
-188 28 -251 14 -158 -34 -308 -166 -372 -328 -29 -75 -31 -230 -4 -311 51
-148 176 -274 325 -326 36 -13 85 -24 109 -24 l42 0 0 -151 0 -151 -67 6
c-355 35 -634 282 -713 631 -18 78 -19 215 -4 305 57 329 336 600 669 650 91
14 234 3 327 -24z m-296 -530 c32 -8 97 -65 149 -131 26 -33 64 -75 84 -93 32
-29 41 -32 81 -28 25 3 52 7 61 11 19 7 32 -21 48 -103 15 -72 16 -68 -31 -96
-100 -57 -212 -53 -293 9 -19 14 -60 59 -90 100 -78 106 -101 118 -201 102
l-42 -6 -15 82 c-9 48 -11 89 -6 98 9 17 96 56 139 61 29 4 85 1 116 -6z"/>
</g>
</svg>
